<?xml version="1.0" standalone="no"?>
<!DOCTYPE svg PUBLIC "-//W3C//DTD SVG 20010904//EN"
 "http://www.w3.org/TR/2001/REC-SVG-20010904/DTD/svg10.dtd">
<svg version="1.0" xmlns="http://www.w3.org/2000/svg"
 width="700.000000pt" height="700.000000pt" viewBox="0 0 700.000000 700.000000"
 preserveAspectRatio="xMidYMid meet">
<metadata>
Created by potrace 1.14, written by Peter Selinger 2001-2017
</metadata>
<g transform="translate(0.000000,700.000000) scale(0.100000,-0.100000)"
fill="#000000" stroke="none">
<path d="M2197 6014 c-1 -1 -33 -4 -72 -7 -264 -23 -559 -127 -783 -276 -87
-58 -96 -64 -148 -106 -248 -201 -444 -481 -548 -783 -20 -57 -38 -113 -40
-125 -2 -12 -9 -40 -14 -62 -6 -22 -14 -56 -17 -75 -3 -19 -20 -105 -37 -190
-17 -85 -32 -166 -33 -178 -2 -13 -8 -45 -14 -70 -6 -26 -40 -198 -75 -382
-36 -184 -67 -346 -70 -360 -3 -14 -16 -83 -30 -155 -14 -71 -38 -197 -55
-280 -16 -82 -33 -165 -36 -183 -3 -18 -16 -88 -30 -155 -13 -67 -26 -134 -29
-149 -5 -28 -30 -159 -42 -213 -10 -50 -13 -299 -4 -341 5 -21 11 -50 13 -64
38 -201 140 -393 292 -546 265 -267 608 -374 995 -308 97 16 280 90 367 149
139 93 156 110 433 425 128 146 262 299 299 340 162 182 327 370 374 424 22
25 109 123 134 151 18 20 28 21 474 20 l456 0 28 -34 c16 -18 34 -38 40 -45 6
-6 44 -49 85 -96 41 -47 77 -87 80 -90 5 -5 206 -233 250 -284 14 -16 30 -34
35 -40 15 -16 155 -175 190 -215 17 -18 35 -39 40 -45 6 -6 60 -67 120 -136
206 -235 233 -263 319 -327 536 -398 1299 -229 1615 359 81 149 122 308 126
483 3 125 1 142 -41 365 -14 74 -28 145 -30 158 -7 39 -20 104 -38 188 -2 12
-7 37 -10 55 -3 19 -19 102 -35 184 -16 83 -32 163 -35 179 -3 16 -10 52 -15
80 -11 57 -67 347 -75 386 -2 14 -14 70 -25 125 -11 55 -22 114 -25 130 -3 17
-8 41 -11 55 -2 14 -6 36 -9 50 -2 14 -7 36 -10 50 -3 14 -8 36 -10 50 -9 50
-47 246 -56 290 -10 46 -14 69 -30 155 -4 28 -14 73 -20 100 -6 28 -13 57 -15
66 -2 9 -17 58 -35 110 -197 590 -698 1033 -1306 1157 -55 11 -128 24 -164 28
-50 6 -2686 13 -2693 8z m2683 -670 c431 -75 770 -383 880 -800 11 -43 24
-104 27 -134 13 -102 6 -312 -11 -361 -3 -8 -7 -25 -10 -39 -7 -41 -45 -151
-73 -210 -77 -161 -189 -296 -359 -430 -46 -35 -205 -114 -283 -140 -178 -58
-177 -58 -1234 -59 -534 -1 -982 -4 -996 -8 -87 -20 -142 -66 -291 -238 -47
-54 -90 -103 -95 -109 -6 -6 -110 -123 -230 -261 -120 -137 -222 -252 -225
-255 -3 -3 -55 -61 -115 -130 -60 -69 -114 -130 -120 -136 -5 -6 -64 -73 -129
-148 -70 -80 -140 -150 -170 -169 -292 -188 -675 15 -677 359 0 39 4 89 10
110 5 22 12 53 15 69 6 38 7 43 61 315 48 248 84 432 91 470 3 14 23 119 45
234 22 115 43 218 45 230 2 12 19 100 39 196 19 96 37 190 40 209 3 19 19 101
35 181 16 80 32 162 35 181 20 119 60 295 81 357 121 365 462 652 851 717 123
20 2644 20 2763 -1z m1166 -2260 c3 -21 12 -66 19 -99 8 -33 17 -76 20 -95 3
-19 12 -69 20 -110 8 -41 17 -86 19 -100 19 -100 71 -362 87 -440 26 -124 26
-220 -1 -300 -87 -258 -382 -372 -628 -242 -54 29 -106 81 -272 272 -36 41
-67 77 -70 80 -3 3 -86 97 -185 210 -99 113 -190 216 -202 230 -12 13 -21 25
-20 26 1 2 25 6 52 9 28 4 61 8 75 11 14 2 41 7 60 10 268 43 603 202 815 388
38 34 98 91 134 128 36 37 66 66 68 65 1 -2 5 -21 9 -43z"/>
<path d="M2300 4904 c-81 -29 -163 -105 -195 -182 -16 -37 -27 -110 -29 -185
l-1 -51 -85 -2 c-120 -3 -194 -34 -269 -113 -78 -82 -101 -245 -49 -351 34
-69 88 -124 152 -157 41 -21 71 -27 151 -32 l100 -6 2 -70 c6 -169 62 -266
192 -332 106 -53 266 -31 352 48 77 71 109 147 113 269 l3 85 99 6 c80 4 109
11 151 32 66 34 115 83 150 150 24 45 28 64 28 142 0 106 -22 163 -91 232 -70
70 -137 94 -269 98 -33 1 -62 3 -65 4 -3 0 -6 38 -7 84 -2 147 -68 259 -187
317 -64 31 -181 37 -246 14z"/>
<path d="M4109 4479 c-106 -16 -201 -86 -250 -184 -20 -42 -24 -65 -24 -140 0
-79 4 -97 28 -142 46 -89 133 -158 224 -177 32 -7 174 -9 574 -6 226 1 227 2
285 29 269 127 251 503 -28 608 -36 13 -101 16 -403 17 -198 1 -381 -2 -406
-5z"/>
</g>
</svg>
